<?xml version="1.0" encoding="UTF-8"?>
<svg id="_图层_1" data-name="图层 1" xmlns="http://www.w3.org/2000/svg" xmlns:xlink="http://www.w3.org/1999/xlink" viewBox="0 0 864.86 1122.09">
  <defs>
    <style>
      .cls-1 {
        fill: url(#_未命名的渐变_9-7);
      }

      .cls-2 {
        fill: url(#_未命名的渐变_9-8);
      }

      .cls-3 {
        fill: url(#_未命名的渐变_9-9);
      }

      .cls-4 {
        fill: url(#_未命名的渐变_9-2);
      }

      .cls-5 {
        fill: url(#_未命名的渐变_9-3);
      }

      .cls-6 {
        fill: url(#_未命名的渐变_9-4);
      }

      .cls-7 {
        fill: url(#_未命名的渐变_9-6);
      }

      .cls-8 {
        fill: url(#_未命名的渐变_9-5);
      }

      .cls-9 {
        fill: url(#_未命名的渐变_9);
      }

      .cls-10 {
        fill: url(#_未命名的渐变_9-20);
      }

      .cls-11 {
        fill: url(#_未命名的渐变_9-12);
      }

      .cls-12 {
        fill: url(#_未命名的渐变_9-11);
      }

      .cls-13 {
        fill: url(#_未命名的渐变_9-14);
      }

      .cls-14 {
        fill: url(#_未命名的渐变_9-19);
      }

      .cls-15 {
        fill: url(#_未命名的渐变_9-17);
      }

      .cls-16 {
        fill: url(#_未命名的渐变_9-13);
      }

      .cls-17 {
        fill: url(#_未命名的渐变_9-16);
      }

      .cls-18 {
        fill: url(#_未命名的渐变_9-15);
      }

      .cls-19 {
        fill: url(#_未命名的渐变_9-18);
      }

      .cls-20 {
        fill: url(#_未命名的渐变_9-21);
      }

      .cls-21 {
        fill: url(#_未命名的渐变_9-10);
      }
    </style>
    <linearGradient id="_未命名的渐变_9" data-name="未命名的渐变 9" x1="7902.08" y1="1122.29" x2="7902.08" y2="131.76" gradientTransform="translate(8381.34) rotate(-180) scale(1 -1)" gradientUnits="userSpaceOnUse">
      <stop offset="0" stop-color="#b2b2b2"/>
      <stop offset=".29" stop-color="#afafaf"/>
      <stop offset=".48" stop-color="#a6a6a6"/>
      <stop offset=".63" stop-color="#979797"/>
      <stop offset=".77" stop-color="#838383"/>
      <stop offset=".9" stop-color="#686868"/>
      <stop offset="1" stop-color="#4d4d4d"/>
    </linearGradient>
    <linearGradient id="_未命名的渐变_9-2" data-name="未命名的渐变 9" x1="7947.8" y1="23.15" x2="7947.8" y2=".93" xlink:href="#_未命名的渐变_9"/>
    <linearGradient id="_未命名的渐变_9-3" data-name="未命名的渐变 9" x1="7945.11" y1="47.65" x2="7945.11" y2="25.43" xlink:href="#_未命名的渐变_9"/>
    <linearGradient id="_未命名的渐变_9-4" data-name="未命名的渐变 9" x1="7938.69" y1="100.83" x2="7938.69" y2="56.54" xlink:href="#_未命名的渐变_9"/>
    <linearGradient id="_未命名的渐变_9-5" data-name="未命名的渐变 9" x1="7940.19" y1="54.26" x2="7940.19" y2="46.62" xlink:href="#_未命名的渐变_9"/>
    <linearGradient id="_未命名的渐变_9-6" data-name="未命名的渐变 9" x1="7945.11" y1="29.76" x2="7945.11" y2="22.12" xlink:href="#_未命名的渐变_9"/>
    <linearGradient id="_未命名的渐变_9-7" data-name="未命名的渐变 9" x1="7940.19" y1="60.88" x2="7940.19" y2="53.23" xlink:href="#_未命名的渐变_9"/>
    <linearGradient id="_未命名的渐变_9-8" data-name="未命名的渐变 9" x1="7938.98" y1="104.14" x2="7938.98" y2="96.49" xlink:href="#_未命名的渐变_9"/>
    <linearGradient id="_未命名的渐变_9-9" data-name="未命名的渐变 9" x1="7938.98" y1="126.17" x2="7938.98" y2="118.53" xlink:href="#_未命名的渐变_9"/>
    <linearGradient id="_未命名的渐变_9-10" data-name="未命名的渐变 9" x1="7938.98" y1="132.79" x2="7938.98" y2="125.14" xlink:href="#_未命名的渐变_9"/>
    <linearGradient id="_未命名的渐变_9-11" data-name="未命名的渐变 9" x1="7938.98" y1="119.56" x2="7938.98" y2="103.11" xlink:href="#_未命名的渐变_9"/>
    <linearGradient id="_未命名的渐变_9-12" data-name="未命名的渐变 9" x1="8293.07" y1="142.38" x2="8293.07" y2="132.79" gradientTransform="translate(-8204.81 275.17) scale(1 -1)" xlink:href="#_未命名的渐变_9"/>
    <linearGradient id="_未命名的渐变_9-13" data-name="未命名的渐变 9" x1="8293.07" y1="161.57" x2="8293.07" y2="142.38" xlink:href="#_未命名的渐变_9"/>
    <linearGradient id="_未命名的渐变_9-14" data-name="未命名的渐变 9" x1="8294.34" y1="206.38" x2="8294.34" y2="161.57" gradientTransform="translate(-8207.34 367.95) scale(1 -1)" xlink:href="#_未命名的渐变_9"/>
    <linearGradient id="_未命名的渐变_9-15" data-name="未命名的渐变 9" x1="8294.34" y1="214.86" x2="8294.34" y2="206.38" gradientTransform="translate(-8207.34 421.24) scale(1 -1)" xlink:href="#_未命名的渐变_9"/>
    <linearGradient id="_未命名的渐变_9-16" data-name="未命名的渐变 9" x1="8294.34" y1="222.78" x2="8294.34" y2="214.3" gradientTransform="translate(-8207.34 437.08) scale(1 -1)" xlink:href="#_未命名的渐变_9"/>
    <linearGradient id="_未命名的渐变_9-17" data-name="未命名的渐变 9" x1="7754.12" y1="742.07" x2="8152.53" y2="343.67" xlink:href="#_未命名的渐变_9"/>
    <linearGradient id="_未命名的渐变_9-18" data-name="未命名的渐变 9" x1="8182.33" y1="544.8" x2="8182.33" y2="528.13" gradientTransform="translate(-7983.32 1072.94) scale(1 -1)" xlink:href="#_未命名的渐变_9"/>
    <linearGradient id="_未命名的渐变_9-19" data-name="未命名的渐变 9" x1="8182.33" y1="562.36" x2="8182.33" y2="545.69" gradientTransform="translate(-7983.32 1108.05) scale(1 -1)" xlink:href="#_未命名的渐变_9"/>
    <linearGradient id="_未命名的渐变_9-20" data-name="未命名的渐变 9" x1="8373.31" y1="672.53" x2="8245.33" y2="672.53" gradientTransform="translate(-8237.31 1345.07) scale(1 -1)" xlink:href="#_未命名的渐变_9"/>
    <linearGradient id="_未命名的渐变_9-21" data-name="未命名的渐变 9" x1="8230.35" y1="842.32" x2="8134.31" y2="842.32" gradientTransform="translate(-7983.32 1684.65) scale(1 -1)" xlink:href="#_未命名的渐变_9"/>
  </defs>
  <path class="cls-9" d="M870.25,131.76v96.41s-354.67,1.03-354.67,1.03c-148.33,0-268.58,134.24-268.58,299.84v593.25H88.27V132.79s781.98-1.03,781.98-1.03Z"/>
  <polygon class="cls-4" points="-.35 23.15 867.43 22.12 867.43 .93 -.35 1.96 -.35 23.15"/>
  <polygon class="cls-5" points="5.01 47.65 867.43 46.62 867.43 25.43 5.01 26.46 5.01 47.65"/>
  <polygon class="cls-6" points="16.07 100.83 869.21 99.8 869.21 56.54 16.07 57.57 16.07 100.83"/>
  <polygon class="cls-8" points="14.57 54.26 867.72 53.23 867.72 46.62 14.57 47.65 14.57 54.26"/>
  <polygon class="cls-7" points="5.01 29.76 867.43 28.73 867.43 22.12 5.01 23.15 5.01 29.76"/>
  <polygon class="cls-1" points="14.57 60.88 867.72 59.84 867.72 53.23 14.57 54.26 14.57 60.88"/>
  <polygon class="cls-2" points="14.47 104.14 870.25 103.11 870.25 96.49 14.47 97.52 14.47 104.14"/>
  <polygon class="cls-3" points="14.47 126.17 870.25 125.14 870.25 118.53 14.47 119.56 14.47 126.17"/>
  <polygon class="cls-21" points="14.47 132.79 870.25 131.76 870.25 125.14 14.47 126.17 14.47 132.79"/>
  <polygon class="cls-12" points="14.47 119.56 870.25 118.53 870.25 103.11 14.47 104.14 14.47 119.56"/>
  <rect class="cls-11" x="14.47" y="132.79" width="147.59" height="9.59" transform="translate(176.53 275.17) rotate(-180)"/>
  <polygon class="cls-16" points="22.82 161.57 150.99 161.57 162.06 142.38 14.47 142.38 22.82 161.57"/>
  <rect class="cls-13" x="23.01" y="161.57" width="127.98" height="44.81" transform="translate(173.99 367.95) rotate(-180)"/>
  <rect class="cls-18" x="23.01" y="206.38" width="127.98" height="8.48" transform="translate(173.99 421.24) rotate(-180)"/>
  <rect class="cls-17" x="23.01" y="214.3" width="127.98" height="8.48" transform="translate(173.99 437.08) rotate(-180)"/>
  <path class="cls-15" d="M867.43,182.94l-367.22,1.03c-161.34,0-292.13,146.01-292.13,326.12v612.19s38.92,0,38.92,0V532.27c0-169.66,123.2-307.19,275.17-307.19l348.07-1.03-2.81-41.1Z"/>
  <rect class="cls-19" x="150.99" y="528.13" width="96.04" height="16.67" transform="translate(398.01 1072.94) rotate(-180)"/>
  <rect class="cls-14" x="150.99" y="545.69" width="96.04" height="16.67" transform="translate(398.01 1108.05) rotate(-180)"/>
  <rect class="cls-10" x="8.02" y="222.78" width="127.98" height="899.51" transform="translate(144.02 1345.07) rotate(-180)"/>
  <rect class="cls-20" x="150.99" y="562.36" width="96.04" height="559.93" transform="translate(398.01 1684.65) rotate(-180)"/>
</svg>